<svg xmlns="http://www.w3.org/2000/svg" width="169.698" height="37" viewBox="0 0 169.698 37">
  <g id="Group_847" data-name="Group 847" transform="translate(-1676 -4061.551)">
    <text id="Facebook" transform="translate(1712.698 4089.551)" fill="#fff" font-size="27" font-family="Poppins-Medium, Poppins" font-weight="500"><tspan x="0" y="0">Facebook</tspan></text>
    <g id="facebook-2" data-name="facebook" transform="translate(1676 4066.151)">
      <path id="Subtraction_1" data-name="Subtraction 1" d="M14.35,28.7H3.587A3.591,3.591,0,0,1,0,25.112V3.588A3.592,3.592,0,0,1,3.587,0H25.112A3.591,3.591,0,0,1,28.7,3.588V25.112A3.591,3.591,0,0,1,25.112,28.7H19.73V18.834h2.691l1.793-4.484H19.73V10.762c0-.832.58-.9,1.339-.9h2.25V5.382H19.73a5.386,5.386,0,0,0-5.38,5.38V14.35H10.762v4.484H14.35V28.7Z" fill="#fff"/>
    </g>
  </g>
</svg>
