<svg xmlns="http://www.w3.org/2000/svg" width="181.859" height="37" viewBox="0 0 181.859 37">
  <g id="instagram" transform="translate(-2185.358 -4061.551)">
    <text id="Instagram-2" data-name="Instagram" transform="translate(2224.217 4089.551)" fill="#fff" font-size="27" font-family="Poppins-Medium, Poppins" font-weight="500"><tspan x="0" y="0">Instagram</tspan></text>
    <g id="instagram_1_" data-name="instagram (1)" transform="translate(2185.358 4064.385)">
      <path id="Path_3675" data-name="Path 3675" d="M30.766,9.068a11.328,11.328,0,0,0-.717-3.745,7.562,7.562,0,0,0-1.78-2.733A7.564,7.564,0,0,0,25.536.809,11.326,11.326,0,0,0,21.791.093C20.145.018,19.62,0,15.429,0S10.713.018,9.068.093A11.329,11.329,0,0,0,5.323.81,7.562,7.562,0,0,0,2.59,2.59,7.563,7.563,0,0,0,.809,5.322,11.327,11.327,0,0,0,.093,9.068C.018,10.713,0,11.239,0,15.429s.018,4.716.093,6.362A11.325,11.325,0,0,0,.81,25.536a7.561,7.561,0,0,0,1.78,2.733,7.56,7.56,0,0,0,2.733,1.78,11.321,11.321,0,0,0,3.745.717c1.646.075,2.171.093,6.361.093s4.716-.018,6.361-.093a11.323,11.323,0,0,0,3.745-.717,7.888,7.888,0,0,0,4.512-4.512,11.324,11.324,0,0,0,.717-3.745c.075-1.646.093-2.171.093-6.361s-.018-4.716-.093-6.361Zm-2.777,12.6a8.537,8.537,0,0,1-.531,2.865,5.109,5.109,0,0,1-2.928,2.928,8.537,8.537,0,0,1-2.865.531c-1.627.074-2.115.09-6.235.09s-4.608-.016-6.235-.09a8.54,8.54,0,0,1-2.865-.531A4.782,4.782,0,0,1,4.555,26.3,4.78,4.78,0,0,1,3.4,24.529a8.537,8.537,0,0,1-.531-2.865c-.074-1.627-.09-2.115-.09-6.235s.016-4.608.09-6.235A8.543,8.543,0,0,1,3.4,6.33,4.784,4.784,0,0,1,4.555,4.555,4.777,4.777,0,0,1,6.33,3.4,8.535,8.535,0,0,1,9.195,2.87c1.627-.074,2.115-.09,6.235-.09h0c4.12,0,4.608.016,6.235.09a8.538,8.538,0,0,1,2.865.531A4.784,4.784,0,0,1,26.3,4.555,4.777,4.777,0,0,1,27.457,6.33a8.529,8.529,0,0,1,.531,2.865c.074,1.627.09,2.115.09,6.235s-.016,4.608-.09,6.235Zm0,0" transform="translate(0 0)" fill="#fff"/>
      <path id="Path_3676" data-name="Path 3676" d="M132.462,124.539a7.923,7.923,0,1,0,7.923,7.923A7.923,7.923,0,0,0,132.462,124.539Zm0,13.066a5.143,5.143,0,1,1,5.143-5.143A5.143,5.143,0,0,1,132.462,137.605Zm0,0" transform="translate(-117.033 -117.033)" fill="#fff"/>
      <path id="Path_3677" data-name="Path 3677" d="M365.633,90.477a1.852,1.852,0,1,1-1.852-1.852A1.852,1.852,0,0,1,365.633,90.477Zm0,0" transform="translate(-340.116 -83.284)" fill="#fff"/>
    </g>
  </g>
</svg>
