<svg xmlns="http://www.w3.org/2000/svg" width="150.617" height="37" viewBox="0 0 150.617 37">
  <g id="linkedin" transform="translate(-2673.492 -4062)">
    <text id="Linkedin-2" data-name="Linkedin" transform="translate(2712.109 4090)" fill="#fff" font-size="27" font-family="Poppins-Medium, Poppins" font-weight="500"><tspan x="0" y="0">Linkedin</tspan></text>
    <path id="linkedin-3" data-name="linkedin" d="M27.848,0H2.77A2.77,2.77,0,0,0,0,2.77V27.848a2.77,2.77,0,0,0,2.77,2.77H27.848a2.77,2.77,0,0,0,2.77-2.77V2.77A2.77,2.77,0,0,0,27.848,0ZM9.474,26.437a.806.806,0,0,1-.806.806H5.237a.806.806,0,0,1-.806-.806V12.055a.806.806,0,0,1,.806-.806H8.668a.806.806,0,0,1,.806.806ZM6.953,9.893a3.259,3.259,0,1,1,3.259-3.259A3.259,3.259,0,0,1,6.953,9.893ZM27.4,26.5a.741.741,0,0,1-.741.741H22.981a.741.741,0,0,1-.741-.741V19.756c0-1.006.3-4.41-2.63-4.41-2.269,0-2.729,2.33-2.822,3.375V26.5a.741.741,0,0,1-.741.741H12.487a.741.741,0,0,1-.741-.741V11.99a.741.741,0,0,1,.741-.741h3.561a.741.741,0,0,1,.741.741v1.255c.841-1.263,2.092-2.237,4.754-2.237,5.9,0,5.861,5.508,5.861,8.534V26.5Z" transform="translate(2673.492 4065)" fill="#fff"/>
  </g>
</svg>
