<svg xmlns="http://www.w3.org/2000/svg" width="130.499" height="37" viewBox="0 0 130.499 37">
  <g id="twitter" transform="translate(-2455.196 -4062)">
    <text id="Twitter-2" data-name="Twitter" transform="translate(2493.695 4090)" fill="#fff" font-size="27" font-family="Poppins-Medium, Poppins" font-weight="500"><tspan x="0" y="0">Twitter</tspan></text>
    <path id="Path_3678" data-name="Path 3678" d="M27.621,0H2.878A2.878,2.878,0,0,0,0,2.878V27.621A2.878,2.878,0,0,0,2.878,30.5H27.621A2.878,2.878,0,0,0,30.5,27.621V2.878A2.878,2.878,0,0,0,27.621,0ZM24.177,10.972q.01.269.011.54a13.13,13.13,0,0,1-20.147,11.1h0A8.848,8.848,0,0,0,10.8,20.675,4.541,4.541,0,0,1,6.57,17.457,4.215,4.215,0,0,0,8.6,17.372,4.378,4.378,0,0,1,4.961,12.8a4.733,4.733,0,0,0,1.99.593C3.437,10.3,5.639,7.3,5.639,7.3a13.873,13.873,0,0,0,9.455,4.78,4.607,4.607,0,0,1,7.851-4.19c.233-.065.459-.136.675-.208a15.993,15.993,0,0,0,2.236-.932,4.88,4.88,0,0,1-2,2.557l-.007,0h.008a10.649,10.649,0,0,0,2.606-.676A10.317,10.317,0,0,1,24.177,10.972Z" transform="translate(2455.196 4065)" fill="#fff"/>
  </g>
</svg>
