<svg xmlns="http://www.w3.org/2000/svg" width="126.617" height="37" viewBox="0 0 126.617 37">
  <g id="vimeo" transform="translate(-2913.011 -4062)">
    <text id="Vimeo-2" data-name="Vimeo" transform="translate(2951.628 4090)" fill="#fff" font-size="27" font-family="Poppins-Medium, Poppins" font-weight="500"><tspan x="0" y="0">Vimeo</tspan></text>
    <path id="Path_3679" data-name="Path 3679" d="M27.258,0H3.359A3.359,3.359,0,0,0,0,3.359v23.9a3.359,3.359,0,0,0,3.359,3.359h23.9a3.359,3.359,0,0,0,3.359-3.359V3.359A3.359,3.359,0,0,0,27.258,0Zm0,10.346c-.237,3.937-5.951,10.51-7.4,12.049s-4.085,3.641-6.158,3.257-2.745-3.042-3.257-4.47c-.114-.318-1.983-7.224-2.428-8.556s-1.149-1.717-1.48-1.717c-.533,0-2.013,1.155-2.013,1.155l-1.184-1.51c5.033-4.618,6.513-5.27,7.372-5.27s2.664.474,3.079,3.316,1.539,7.727,1.628,8.082.622,1.687,1.3,1.6,2.516-2.9,3.168-4.115.859-2.842.089-3.582-2.872.03-2.872.03a7.281,7.281,0,0,1,4.5-5.388,5.02,5.02,0,0,1,4.145.3C26.28,5.861,27.475,6.705,27.256,10.346Z" transform="translate(2913.011 4065)" fill="#fff"/>
  </g>
</svg>
