<svg xmlns="http://www.w3.org/2000/svg" width="161.614" height="37" viewBox="0 0 161.614 37">
  <g id="youtube" transform="translate(-1935.226 -4062)">
    <text id="Youtube-2" data-name="Youtube" transform="translate(1982.841 4090)" fill="#fff" font-size="27" font-family="Poppins-Medium, Poppins" font-weight="500"><tspan x="0" y="0">Youtube</tspan></text>
    <path id="youtube-3" data-name="youtube" d="M38.8-1.742a4.963,4.963,0,0,0-3.491-3.492c-3.1-.848-15.5-.848-15.5-.848s-12.4,0-15.5.816A5.063,5.063,0,0,0,.816-1.742C0,1.358,0,7.786,0,7.786s0,6.461.816,9.528a4.964,4.964,0,0,0,3.492,3.492c3.132.848,15.5.848,15.5.848s12.4,0,15.5-.816A4.963,4.963,0,0,0,38.8,17.347c.816-3.1.816-9.528.816-9.528s.033-6.461-.816-9.561ZM15.859,13.725V1.847L26.171,7.786Zm0,0" transform="translate(1935.226 4072.082)" fill="#fff"/>
  </g>
</svg>
